<svg width="59" height="61" viewBox="0 0 59 61" fill="none" xmlns="http://www.w3.org/2000/svg">
<path d="M43.6873 56.4432L27.9917 33.6387L25.7565 30.3925L7.54347 3.9306H15.3779L30.107 25.331L32.342 28.5772L51.5218 56.4432H43.6873ZM54.7605 54.2156L34.9917 25.4954L32.7567 22.2472L18.6153 1.70256L17.4432 -1.7372e-05H0.0664062L4.30431 6.15815L23.1069 33.4778L25.342 36.7225L40.4496 58.6732L41.6217 60.3738H58.9986L54.7605 54.2156Z" fill="#D51E25"/>
<path d="M25.758 30.3925L27.9932 33.6387L25.3435 36.7225L5.0133 60.3738H0L23.1084 33.4778L25.758 30.3925Z" fill="#D51E25"/>
<path d="M56.909 6.92092e-05L34.9941 25.4955L32.3444 28.5773L30.1094 25.3311L32.7591 22.2473L47.604 4.96872L51.8957 6.92092e-05H56.909Z" fill="#D51E25"/>
</svg>
