<svg width="63" height="52" viewBox="0 0 63 52" fill="none" xmlns="http://www.w3.org/2000/svg">
<path d="M62.8761 1.12348C62.6503 0.45812 62.3808 0.283025 61.96 0.116685C61.0395 -0.224751 59.4802 0.29178 59.4802 0.29178C59.4802 0.29178 4.28074 20.1476 1.12723 22.345C0.448234 22.8178 0.220742 23.0979 0.107867 23.4219C-0.437259 24.9802 1.26111 25.6718 1.26111 25.6718L15.4886 30.3119C15.4886 30.3119 16.0189 30.3906 16.2079 30.2681C19.4445 28.2195 48.7719 9.69439 50.4633 9.0728C50.7302 8.99401 50.9279 9.08156 50.8754 9.26541C50.1982 11.6467 24.726 34.2953 24.726 34.2953C24.726 34.2953 24.6289 34.4178 24.5677 34.5579L24.5344 34.5404L23.207 48.6618C23.207 48.6618 22.6505 52.9867 26.9739 48.6618C30.0242 45.6064 32.9755 43.05 34.4525 41.8156C39.3447 45.1949 44.6095 48.9332 46.8819 50.8855C48.0229 51.8661 48.9776 52.0236 49.7633 51.9974C51.9202 51.9186 52.5222 49.5461 52.5222 49.5461C52.5222 49.5461 62.5812 9.03779 62.9172 3.60984C62.9505 3.0758 62.996 2.74311 62.9995 2.37541C63.0056 1.86763 62.9583 1.35986 62.8761 1.12348Z" fill="#D51E25"/>
</svg>
