<svg width="60" height="69" viewBox="0 0 60 69" fill="none" xmlns="http://www.w3.org/2000/svg">
<path d="M0.96875 34.1539L10.0764 30.1693V19.9231L20.3226 25.6154L29.4303 21.6308L10.0764 10.2462L0.96875 14.8001V34.1539Z" fill="#D51E25"/>
<path d="M59.5984 14.7998L51.6292 10.8152L41.383 16.5075L48.2138 19.9229L0.398438 42.1229V53.5075L7.79844 56.9229L18.6138 52.369L11.7831 48.3844L59.5984 26.7536V14.7998Z" fill="#D51E25"/>
<path d="M59.5983 52.3692V34.1538L51.0598 37.5692V47.8153L40.2444 42.6923L31.1367 47.8153L51.0598 57.4923L59.5983 52.3692Z" fill="#D51E25"/>
<path d="M30.5695 58.0617L25.4465 55.7848L15.7695 60.3386L30.5695 68.3079L45.3695 60.3386L36.8311 55.7848L30.5695 58.0617Z" fill="#D51E25"/>
<path d="M30.5695 0L15.7695 7.4L24.8772 13.0923L30.5695 10.2462L35.1234 13.0923L45.3695 8.53846L30.5695 0Z" fill="#D51E25"/>
</svg>
